# xmcd
#
# Track frame offsets:
#	150
#	24192
#	41440
#	60420
#	79275
#	96967
#	115587
#	134070
#	153650
#	169925
#	202340
#	219095
#	236377
#	251645
#
# Disc length: 3781 seconds
# Revision: 8
# Processed by: cddbd v1.5.2PL0 Copyright (c) Steve Scherf et al.
# Submitted via: dBpowerAMP V12.0
#
DISCID=bc0ec30e
DTITLE=Shemekia Copeland - Turn The Heat up
DYEAR=1998
DGENRE=Blues
TTITLE0=Turn The Heat up
TTITLE1=I Always Get my Man
TTITLE2=Salt in my Wounds
TTITLE3=Cold Feet
TTITLE4=Suspicion
TTITLE5=My Turn Baby
TTITLE6=Ghetto Child
TTITLE7=Your Mama's Talking
TTITLE8=Has Anybody Seen my Man
TTITLE9=Married to The Blues
TTITLE10=Big Lovin' Woman
TTITLE11=My Kind of Guy
TTITLE12=Have Mercy
TTITLE13=It Don't Hurt no More
EXTD=
EXTT0=
EXTT1=
EXTT2=
EXTT3=
EXTT4=
EXTT5=
EXTT6=
EXTT7=
EXTT8=
EXTT9=
EXTT10=
EXTT11=
EXTT12=
EXTT13=
PLAYORDER=
